<?xml version="1.0" encoding="utf-8"?>
<!-- Generator: Adobe Illustrator 22.1.0, SVG Export Plug-In . SVG Version: 6.00 Build 0)  -->
<svg version="1.1" id="Capa_1" xmlns="http://www.w3.org/2000/svg" xmlns:xlink="http://www.w3.org/1999/xlink" x="0px" y="0px"
	 viewBox="0 0 50.8 50.7" style="enable-background:new 0 0 50.8 50.7;" xml:space="preserve">
<style type="text/css">
	.st0{fill:#888889;}
	.st1{fill:#304294;}
</style>
<g>
	<polygon class="st0" points="4.2,43.9 4.2,45.8 7.5,45.8 17.9,37.9 24.2,21.9 29.6,7.1 33.3,7.1 33.3,4.9 20.5,4.9 20.6,7.1 
		23.6,7.1 16.9,26.6 11.5,38.5 6.3,43.1 	"/>
	<polygon class="st1" points="37.8,7 41.6,7 36.3,25 34.8,25 28.9,10.8 26.6,16.8 34.1,35.6 35.6,35.6 44.7,7 48.3,7 48.3,4.9 
		37.8,4.9 	"/>
	<polygon class="st1" points="16.7,25.1 14.5,30.4 7.1,7 2.5,7 2.5,4.9 15.3,4.9 15.3,7.1 11.5,7 	"/>
</g>
</svg>
